HIERARCHY
ROOT mPelvis
{
	OFFSET 0.000000 1.067000 -0.000000
	CHANNELS 6 Xposition Yposition Zposition Xrotation Yrotation Zrotation
	JOINT mTorso
	{
		OFFSET 0.000000 0.084000 -0.000000
		CHANNELS 3 Xrotation Yrotation Zrotation
		JOINT mChest
		{
			OFFSET 0.000000 0.205000 -0.015000
			CHANNELS 3 Xrotation Yrotation Zrotation
			JOINT mNeck
			{
				OFFSET 0.000000 0.251000 -0.010000
				CHANNELS 3 Xrotation Yrotation Zrotation
				JOINT mHead
				{
					OFFSET 0.000000 0.076000 0.000000
					CHANNELS 3 Xrotation Yrotation Zrotation
					JOINT mSkull
					{
						OFFSET 0.000000 0.079000 0.000000
						CHANNELS 3 Xrotation Yrotation Zrotation
						End Site
						{
							OFFSET -0.000000 -0.100000 0.000000
						}
					}
					JOINT mEyeRight
					{
						OFFSET -0.036000 0.079000 0.098000
						CHANNELS 3 Xrotation Yrotation Zrotation
						End Site
						{
							OFFSET -0.000000 -0.100000 0.000000
						}
					}
					JOINT mEyeLeft
					{
						OFFSET 0.036000 0.079000 0.098000
						CHANNELS 3 Xrotation Yrotation Zrotation
						End Site
						{
							OFFSET -0.000000 -0.100000 0.000000
						}
					}
					JOINT HEAD
					{
						OFFSET 0.000000 0.070000 0.020000
						CHANNELS 3 Xrotation Yrotation Zrotation
						End Site
						{
							OFFSET -0.000000 -0.100000 0.000000
						}
					}
				}
				JOINT NECK
				{
					OFFSET 0.000000 0.020000 0.000000
					CHANNELS 3 Xrotation Yrotation Zrotation
					End Site
					{
						OFFSET -0.000000 -0.100000 0.000000
					}
				}
			}
			JOINT mCollarLeft
			{
				OFFSET 0.085000 0.165000 -0.021000
				CHANNELS 3 Xrotation Yrotation Zrotation
				JOINT mShoulderLeft
				{
					OFFSET 0.079000 0.000000 -0.000000
					CHANNELS 3 Xrotation Yrotation Zrotation
					JOINT mElbowLeft
					{
						OFFSET 0.248000 0.000000 -0.000000
						CHANNELS 3 Xrotation Yrotation Zrotation
						JOINT mWristLeft
						{
							OFFSET 0.205000 0.000000 -0.000000
							CHANNELS 3 Xrotation Yrotation Zrotation
							JOINT L_HAND
							{
								OFFSET 0.050000 0.000000 0.010000
								CHANNELS 3 Xrotation Yrotation Zrotation
								End Site
								{
									OFFSET 0.000000 -0.100000 0.000000
								}
							}
						}
						JOINT L_LOWER_ARM
						{
							OFFSET 0.100000 0.000000 -0.000000
							CHANNELS 3 Xrotation Yrotation Zrotation
							End Site
							{
								OFFSET 0.000000 -0.100000 0.000000
							}
						}
					}
					JOINT L_UPPER_ARM
					{
						OFFSET 0.120000 0.010000 -0.000000
						CHANNELS 3 Xrotation Yrotation Zrotation
						End Site
						{
							OFFSET 0.000000 -0.100000 0.000000
						}
					}
				}
				JOINT L_CLAVICLE
				{
					OFFSET 0.000000 0.020000 0.020000
					CHANNELS 3 Xrotation Yrotation Zrotation
					End Site
					{
						OFFSET -0.000000 -0.100000 0.000000
					}
				}
			}
			JOINT mCollarRight
			{
				OFFSET -0.085000 0.165000 -0.021000
				CHANNELS 3 Xrotation Yrotation Zrotation
				JOINT mShoulderRight
				{
					OFFSET -0.079000 0.000000 0.000000
					CHANNELS 3 Xrotation Yrotation Zrotation
					JOINT mElbowRight
					{
						OFFSET -0.248000 0.000000 0.000000
						CHANNELS 3 Xrotation Yrotation Zrotation
						JOINT mWristRight
						{
							OFFSET -0.205000 0.000000 0.000000
							CHANNELS 3 Xrotation Yrotation Zrotation
							JOINT R_HAND
							{
								OFFSET -0.050000 0.000000 0.010000
								CHANNELS 3 Xrotation Yrotation Zrotation
								End Site
								{
									OFFSET 0.000000 -0.100000 0.000000
								}
							}
						}
						JOINT R_LOWER_ARM
						{
							OFFSET -0.100000 0.000000 0.000000
							CHANNELS 3 Xrotation Yrotation Zrotation
							End Site
							{
								OFFSET 0.000000 -0.100000 0.000000
							}
						}
					}
					JOINT R_UPPER_ARM
					{
						OFFSET -0.120000 0.010000 0.000000
						CHANNELS 3 Xrotation Yrotation Zrotation
						End Site
						{
							OFFSET 0.000000 -0.100000 0.000000
						}
					}
				}
				JOINT R_CLAVICLE
				{
					OFFSET 0.000000 0.020000 0.020000
					CHANNELS 3 Xrotation Yrotation Zrotation
					End Site
					{
						OFFSET -0.000000 -0.100000 0.000000
					}
				}
			}
			JOINT CHEST
			{
				OFFSET 0.000000 0.070000 0.028000
				CHANNELS 3 Xrotation Yrotation Zrotation
				End Site
				{
					OFFSET -0.000000 -0.100000 0.000000
				}
			}
			JOINT LEFT_PEC
			{
				OFFSET 0.082000 0.042000 0.119000
				CHANNELS 3 Xrotation Yrotation Zrotation
				End Site
				{
					OFFSET 0.000000 -0.100000 0.000000
				}
			}
			JOINT RIGHT_PEC
			{
				OFFSET -0.082000 0.042000 0.119000
				CHANNELS 3 Xrotation Yrotation Zrotation
				End Site
				{
					OFFSET 0.000000 -0.100000 0.000000
				}
			}
			JOINT UPPER_BACK
			{
				OFFSET 0.000000 0.017253 0.000000
				CHANNELS 3 Xrotation Yrotation Zrotation
				End Site
				{
					OFFSET -0.000000 -0.100000 0.000000
				}
			}
		}
		JOINT BELLY
		{
			OFFSET 0.000000 0.040000 0.028000
			CHANNELS 3 Xrotation Yrotation Zrotation
			End Site
			{
				OFFSET -0.000000 -0.100000 0.000000
			}
		}
		JOINT LOWER_BACK
		{
			OFFSET 0.000000 0.022848 -0.000000
			CHANNELS 3 Xrotation Yrotation Zrotation
			End Site
			{
				OFFSET -0.000000 -0.100000 0.000000
			}
		}
	}
	JOINT mHipRight
	{
		OFFSET -0.129000 -0.041000 0.034000
		CHANNELS 3 Xrotation Yrotation Zrotation
		JOINT mKneeRight
		{
			OFFSET 0.049000 -0.491000 -0.001000
			CHANNELS 3 Xrotation Yrotation Zrotation
			JOINT mAnkleRight
			{
				OFFSET -0.000000 -0.468000 -0.029000
				CHANNELS 3 Xrotation Yrotation Zrotation
				JOINT mFootRight
				{
					OFFSET 0.000000 -0.061000 0.112000
					CHANNELS 3 Xrotation Yrotation Zrotation
					JOINT mToeRight
					{
						OFFSET 0.000000 0.000000 0.109000
						CHANNELS 3 Xrotation Yrotation Zrotation
						End Site
						{
							OFFSET -0.000000 -0.100000 0.000000
						}
					}
				}
				JOINT R_FOOT
				{
					OFFSET 0.000000 -0.041000 0.077000
					CHANNELS 3 Xrotation Yrotation Zrotation
					End Site
					{
						OFFSET 0.000000 -0.100000 0.000000
					}
				}
			}
			JOINT R_LOWER_LEG
			{
				OFFSET -0.000000 -0.200000 -0.020000
				CHANNELS 3 Xrotation Yrotation Zrotation
				End Site
				{
					OFFSET -0.000000 -0.100000 0.000000
				}
			}
		}
		JOINT R_UPPER_LEG
		{
			OFFSET 0.050000 -0.220000 -0.020000
			CHANNELS 3 Xrotation Yrotation Zrotation
			End Site
			{
				OFFSET -0.000000 -0.100000 0.000000
			}
		}
	}
	JOINT mHipLeft
	{
		OFFSET 0.127000 -0.041000 0.034000
		CHANNELS 3 Xrotation Yrotation Zrotation
		JOINT mKneeLeft
		{
			OFFSET -0.046000 -0.491000 -0.001000
			CHANNELS 3 Xrotation Yrotation Zrotation
			JOINT mAnkleLeft
			{
				OFFSET 0.001000 -0.468000 -0.029000
				CHANNELS 3 Xrotation Yrotation Zrotation
				JOINT mFootLeft
				{
					OFFSET 0.000000 -0.061000 0.112000
					CHANNELS 3 Xrotation Yrotation Zrotation
					JOINT mToeLeft
					{
						OFFSET 0.000000 0.000000 0.109000
						CHANNELS 3 Xrotation Yrotation Zrotation
						End Site
						{
							OFFSET -0.000000 -0.100000 0.000000
						}
					}
				}
				JOINT L_FOOT
				{
					OFFSET 0.000000 -0.041000 0.077000
					CHANNELS 3 Xrotation Yrotation Zrotation
					End Site
					{
						OFFSET 0.000000 -0.100000 0.000000
					}
				}
			}
			JOINT L_LOWER_LEG
			{
				OFFSET -0.000000 -0.200000 -0.020000
				CHANNELS 3 Xrotation Yrotation Zrotation
				End Site
				{
					OFFSET -0.000000 -0.100000 0.000000
				}
			}
		}
		JOINT L_UPPER_LEG
		{
			OFFSET -0.050000 -0.220000 -0.020000
			CHANNELS 3 Xrotation Yrotation Zrotation
			End Site
			{
				OFFSET -0.000000 -0.100000 0.000000
			}
		}
	}
	JOINT PELVIS
	{
		OFFSET -0.000000 -0.020000 -0.010000
		CHANNELS 3 Xrotation Yrotation Zrotation
		End Site
		{
			OFFSET -0.000000 -0.100000 0.000000
		}
	}
	JOINT BUTT
	{
		OFFSET -0.000000 -0.100000 -0.060000
		CHANNELS 3 Xrotation Yrotation Zrotation
		End Site
		{
			OFFSET -0.000000 -0.100000 0.000000
		}
	}
}
MOTION
Frames: 6
Frame Time: 0.022222
0.000000 1.067000 -0.000000 -0.000000 -0.000000 0.000000 -4.854474 0.010891 0.354929 -8.805311 -0.012971 0.350224 -1.656681 0.000000 0.000000 -8.596117 0.000001 0.000002 0.000001 0.000022 -179.999991 -0.000001 -0.000000 -0.000000 -0.000001 -0.000000 -0.000000 -0.000001 -0.000000 -0.000000 0.000001 0.000000 -0.000000 0.000005 -0.000002 13.496094 -0.628033 -0.043060 -22.545073 -0.000001 0.000000 0.000000 -36.811496 10.309866 6.906345 -0.000002 -0.000002 -0.000001 -0.000001 0.000000 0.000000 -0.000001 0.000000 0.000000 0.000000 0.000000 -0.000000 14.853288 -4.719874 -5.462185 -51.753317 21.914881 91.453979 0.000005 60.786812 -0.000004 -23.626620 -4.482777 -6.055449 -0.000000 -0.000000 0.000000 -0.000002 -0.000003 0.000002 -0.000001 -0.000003 0.000001 -0.000000 -0.000000 0.000000 0.000004 0.000000 0.000000 0.000003 0.000000 0.000000 0.000003 0.000000 0.000000 0.000003 0.000000 0.000000 0.000001 -0.000000 -0.000000 0.000001 -0.000000 -0.000000 -0.000000 -0.000000 -0.000000 -0.000000 0.000003 0.000136 -0.000005 0.000000 -0.000000 -0.000008 0.000017 -0.000027 0.000000 -0.000000 -0.000000 -0.000010 0.000016 -0.000028 -0.000001 0.000000 0.000000 -0.000000 0.000003 0.000136 0.000000 0.000000 -0.000000 0.000000 0.000002 -0.000100 -0.000003 0.000002 -0.000001 0.000009 -0.000013 0.000025 0.000000 -0.000000 0.000000 0.000009 -0.000013 0.000025 0.000000 0.000001 0.000000 0.000000 0.000002 -0.000100 -0.000000 -0.000000 0.000000 -0.000000 -0.000000 0.000000 
0.000000 1.067000 -0.000000 -0.000000 -0.000000 0.000000 -4.537193 0.011099 0.331715 -8.097444 -0.009939 0.322186 -1.408994 -0.000000 0.000000 -7.429970 0.000001 0.000001 0.000002 0.000022 -179.999991 0.000000 0.000000 0.000000 0.000000 0.000000 0.000000 0.000000 0.000000 0.000000 -0.000001 0.000000 -0.000000 -0.000000 -0.000002 11.469255 -0.632461 -0.034947 -32.720711 -0.000001 0.000000 0.000000 -30.766765 9.227037 4.712796 0.000001 0.000002 -0.000000 0.000001 0.000000 0.000002 -0.000000 0.000000 0.000001 -0.000002 -0.000000 0.000000 13.514713 -4.231508 -5.005553 -44.799067 20.754565 89.556061 0.000003 50.764152 -0.000004 -20.019057 -3.963491 -5.060624 0.000000 0.000003 0.000000 -0.000002 0.000001 0.000000 -0.000000 0.000003 0.000000 -0.000000 -0.000000 -0.000000 0.000000 -0.000000 -0.000000 -0.000000 -0.000000 -0.000000 0.000000 -0.000000 -0.000000 0.000000 -0.000000 -0.000000 0.000001 0.000001 -0.000000 0.000001 0.000001 -0.000000 -0.000000 -0.000000 -0.000000 -0.000000 0.000003 0.000136 -0.000005 0.000000 -0.000000 -0.000008 0.000017 -0.000027 0.000000 -0.000000 -0.000000 -0.000010 0.000016 -0.000028 -0.000001 0.000000 0.000000 -0.000000 0.000003 0.000136 0.000000 0.000000 -0.000000 0.000000 0.000002 -0.000100 -0.000003 0.000002 -0.000001 0.000009 -0.000013 0.000025 0.000000 -0.000000 0.000000 0.000009 -0.000013 0.000025 0.000000 0.000001 0.000000 0.000000 0.000002 -0.000100 -0.000000 -0.000000 0.000000 -0.000000 -0.000000 0.000000 
0.000000 1.067000 -0.000000 -0.000000 -0.000000 0.000000 -4.184835 0.011178 0.305933 -7.342086 -0.007088 0.292227 -1.166274 -0.000000 0.000000 -6.275161 0.000001 0.000001 0.000001 0.000022 -179.999991 -0.000001 -0.000000 0.000000 -0.000001 -0.000000 0.000000 -0.000001 -0.000000 0.000000 0.000000 0.000000 0.000000 0.000002 -0.000002 9.484318 -0.633672 -0.027133 -42.539873 -0.000000 -0.000001 0.000001 -24.939252 7.959686 2.704192 0.000000 0.000002 -0.000000 0.000001 -0.000000 0.000002 -0.000001 -0.000001 0.000002 -0.000001 -0.000000 0.000001 12.113145 -3.733053 -4.518455 -38.006212 19.492660 87.879290 0.000003 41.088191 -0.000004 -16.482061 -3.409006 -4.037036 0.000000 0.000002 0.000000 0.000003 0.000000 -0.000001 -0.000001 0.000000 0.000000 -0.000000 0.000000 -0.000000 -0.000000 -0.000000 0.000000 0.000001 -0.000000 0.000000 0.000001 -0.000000 0.000000 0.000001 -0.000000 0.000000 0.000000 0.000000 0.000000 0.000000 0.000000 0.000000 -0.000000 -0.000000 -0.000000 -0.000000 0.000003 0.000136 -0.000005 0.000000 -0.000000 -0.000008 0.000017 -0.000027 0.000000 -0.000000 -0.000000 -0.000010 0.000016 -0.000028 -0.000001 0.000000 0.000000 -0.000000 0.000003 0.000136 0.000000 0.000000 -0.000000 0.000000 0.000002 -0.000100 -0.000003 0.000002 -0.000001 0.000009 -0.000013 0.000025 0.000000 -0.000000 0.000000 0.000009 -0.000013 0.000025 0.000000 0.000001 0.000000 0.000000 0.000002 -0.000100 -0.000000 -0.000000 0.000000 -0.000000 -0.000000 0.000000 
0.000000 1.067000 -0.000000 -0.000000 -0.000000 0.000000 -3.796541 0.011081 0.277522 -6.542677 -0.004500 0.260484 -0.933501 -0.000000 0.000000 -5.153149 0.000001 0.000001 0.000001 0.000022 -179.999991 -0.000001 -0.000000 -0.000000 -0.000001 -0.000000 -0.000000 -0.000001 -0.000000 -0.000000 -0.000001 0.000000 0.000000 0.000000 -0.000001 7.582909 -0.631696 -0.020679 -51.688546 -0.000001 0.000001 -0.000002 -19.471111 6.577635 0.933090 0.000000 -0.000001 0.000001 -0.000001 0.000001 -0.000001 -0.000000 0.000001 -0.000001 -0.000000 0.000000 -0.000001 10.659921 -3.230380 -4.004170 -31.514261 18.210056 86.455551 0.000004 32.065395 -0.000001 -13.090478 -2.833597 -2.990339 0.000001 0.000005 -0.000000 0.000000 0.000000 0.000000 0.000002 0.000001 0.000000 0.000000 0.000000 0.000000 0.000000 -0.000000 -0.000000 -0.000001 -0.000000 -0.000000 -0.000001 -0.000000 -0.000000 0.000001 -0.000000 -0.000000 -0.000001 -0.000000 -0.000000 -0.000000 -0.000000 -0.000000 -0.000000 -0.000000 -0.000000 -0.000000 0.000003 0.000136 -0.000005 0.000000 -0.000000 -0.000008 0.000017 -0.000027 0.000000 -0.000000 -0.000000 -0.000010 0.000016 -0.000028 -0.000001 0.000000 0.000000 -0.000000 0.000003 0.000136 0.000000 0.000000 -0.000000 0.000000 0.000002 -0.000100 -0.000003 0.000002 -0.000001 0.000009 -0.000013 0.000025 0.000000 -0.000000 0.000000 0.000009 -0.000013 0.000025 0.000000 0.000001 0.000000 0.000000 0.000002 -0.000100 -0.000000 -0.000000 0.000000 -0.000000 -0.000000 0.000000 
0.000000 1.067000 -0.000000 -0.000000 -0.000000 0.000000 -3.371456 0.010755 0.246420 -5.702641 -0.002258 0.227092 -0.715645 -0.000000 0.000000 -4.085307 0.000000 0.000001 0.000001 0.000022 -179.999991 -0.000001 -0.000000 0.000000 -0.000001 -0.000000 0.000000 -0.000001 -0.000000 0.000000 0.000002 -0.000000 -0.000000 -0.000001 -0.000001 5.806237 -0.626883 -0.016460 -59.923073 -0.000001 -0.000000 -0.000000 -14.481753 5.160854 -0.572005 -0.000004 0.000000 -0.000001 -0.000000 -0.000000 -0.000003 -0.000001 0.000000 0.000000 0.000000 0.000000 -0.000000 9.166443 -2.729019 -3.466392 -25.437458 16.993284 85.289795 0.000004 23.935239 -0.000000 -9.915956 -2.254456 -1.922587 0.000001 0.000004 -0.000000 -0.000001 0.000001 0.000000 -0.000000 -0.000001 0.000000 -0.000000 0.000000 0.000000 -0.000001 -0.000000 -0.000000 -0.000001 -0.000000 -0.000000 -0.000002 -0.000000 -0.000000 -0.000001 -0.000000 -0.000000 -0.000000 0.000000 0.000000 -0.000000 0.000000 0.000000 -0.000000 -0.000000 -0.000000 -0.000000 0.000003 0.000136 -0.000005 0.000000 -0.000000 -0.000008 0.000017 -0.000027 0.000000 -0.000000 -0.000000 -0.000010 0.000016 -0.000028 -0.000001 0.000000 0.000000 -0.000000 0.000003 0.000136 0.000000 0.000000 -0.000000 0.000000 0.000002 -0.000100 -0.000003 0.000002 -0.000001 0.000009 -0.000013 0.000025 0.000000 -0.000000 0.000000 0.000009 -0.000013 0.000025 0.000000 0.000001 0.000000 0.000000 0.000002 -0.000100 -0.000000 -0.000000 0.000000 -0.000000 -0.000000 0.000000 
0.000000 1.067000 -0.000000 -0.000000 -0.000000 0.000000 -2.908716 0.010138 0.212567 -4.825410 -0.000440 0.192190 -0.517672 -0.000000 0.000000 -3.092908 0.000000 0.000000 0.000002 0.000022 -179.999991 -0.000000 -0.000000 0.000000 -0.000000 -0.000000 0.000000 -0.000000 -0.000000 0.000000 0.000001 -0.000000 0.000000 0.000001 -0.000001 4.194869 -0.619708 -0.015069 -67.076877 0.000001 0.000000 -0.000000 -10.068218 3.790452 -1.804462 0.000001 -0.000003 -0.000000 0.000000 -0.000001 -0.000001 0.000000 -0.000001 -0.000001 0.000001 -0.000000 0.000000 7.644139 -2.234084 -2.909199 -19.865199 15.926164 84.364625 0.000003 16.863551 0.000001 -7.026179 -1.691209 -0.832060 -0.000000 0.000005 -0.000001 -0.000003 -0.000002 0.000000 0.000000 -0.000001 0.000001 -0.000000 -0.000000 0.000000 0.000001 -0.000000 -0.000000 0.000001 -0.000000 -0.000000 0.000001 -0.000000 -0.000000 0.000001 -0.000000 -0.000000 -0.000001 0.000000 0.000000 -0.000001 0.000000 0.000000 -0.000000 -0.000000 -0.000000 -0.000000 0.000003 0.000136 -0.000005 0.000000 -0.000000 -0.000008 0.000017 -0.000027 0.000000 -0.000000 -0.000000 -0.000010 0.000016 -0.000028 -0.000001 0.000000 0.000000 -0.000000 0.000003 0.000136 0.000000 0.000000 -0.000000 0.000000 0.000002 -0.000100 -0.000003 0.000002 -0.000001 0.000009 -0.000013 0.000025 0.000000 -0.000000 0.000000 0.000009 -0.000013 0.000025 0.000000 0.000001 0.000000 0.000000 0.000002 -0.000100 -0.000000 -0.000000 0.000000 -0.000000 -0.000000 0.000000 
